<?xml version="1.0" encoding="utf-8"?>
<svg width="386.25px" height="309px" viewBox="0 0 386.25 309" version="1.1" xmlns:xlink="http://www.w3.org/1999/xlink" xmlns="http://www.w3.org/2000/svg">
  <defs>
    <path d="M78.8594 154.5C78.8594 91.3928 130.018 40.2344 193.125 40.2344C256.232 40.2344 307.391 91.3928 307.391 154.5C307.391 217.607 256.232 268.766 193.125 268.766C130.018 268.766 78.8594 217.607 78.8594 154.5Z" id="path_1" />
    <clipPath id="clip_1">
      <use xlink:href="#path_1" />
    </clipPath>
  </defs>
  <g id="Group">
    <path d="M0 0L386.25 0L386.25 309L0 309L0 0Z" id="Rectangle" fill="#101010" fill-rule="evenodd" stroke="none" />
    <g id="Oval">
      <g clip-path="url(#clip_1)">
        <use xlink:href="#path_1" fill="none" stroke="#C8C8C8" stroke-width="14" />
      </g>
    </g>
    <g id="D" transform="translate(142.625 57)">
      <g id="D" fill="#C9C9C9">
        <path d="M32.8125 120.875L32.8125 71.375Q32.8125 71.375 63.5 71.375Q70.9375 71.375 76.2813 78.6563Q81.625 85.9375 81.625 96.125Q81.625 106.375 76.2813 113.625Q70.9375 120.875 63.5 120.875L32.8125 120.875ZM37.3125 116.375L63.5 116.375Q69.0625 116.375 73.0313 110.438Q77 104.5 77 96.125Q77 87.6875 73.0313 81.7813Q69.0625 75.875 63.5 75.875L37.3125 75.875L37.3125 116.375ZM28.3125 125.375L63.5 125.375Q72.8125 125.375 79.5313 116.781Q86.25 108.188 86.25 96.125Q86.25 88.1875 83.1563 81.4375Q80.0625 74.6875 74.8438 70.7813Q69.625 66.875 63.5 66.875L28.3125 66.875L28.3125 125.375ZM23.8125 129.875L23.8125 62.375L63.5 62.375Q70.8125 62.375 77.125 66.875Q83.4375 71.375 87.1563 79.1563Q90.875 86.9375 90.875 96.125Q90.875 105.25 87.1563 113.063Q83.4375 120.875 77.125 125.375Q70.8125 129.875 63.5 129.875L23.8125 129.875ZM19.3125 134.375L63.5 134.375Q72.0625 134.375 79.4063 129.25Q86.75 124.125 91.125 115.313Q95.5 106.5 95.5 96.125Q95.5 85.8125 91.125 76.9688Q86.75 68.125 79.375 63Q72 57.875 63.5 57.875L19.3125 57.875L19.3125 134.375ZM14.8125 138.875L14.8125 53.375L63.5 53.375Q73.25 53.375 81.6875 59.0938Q90.125 64.8125 95.125 74.6875Q100.125 84.5625 100.125 96.125Q100.125 107.688 95.125 117.563Q90.125 127.438 81.6875 133.156Q73.25 138.875 63.5 138.875L14.8125 138.875ZM10.3125 143.375L63.5 143.375Q71.6875 143.375 79.3125 139.625Q86.9375 135.875 92.5 129.563Q98.0625 123.25 101.406 114.469Q104.75 105.688 104.75 96.125Q104.75 86.5625 101.406 77.8125Q98.0625 69.0625 92.5 62.7188Q86.9375 56.375 79.3125 52.625Q71.6875 48.875 63.5 48.875L10.3125 48.875L10.3125 143.375ZM63.5 147.875L5.8125 147.875L5.8125 44.375L63.5 44.375Q75.6875 44.375 86.25 51.3125Q96.8125 58.25 103.094 70.1875Q109.375 82.125 109.375 96.125Q109.375 106.625 105.656 116.219Q101.937 125.813 95.75 132.75Q89.5625 139.688 81.0938 143.781Q72.625 147.875 63.5 147.875Z" />
      </g>
    </g>
  </g>
</svg>